<svg width="32" height="33" viewBox="0 0 32 33" fill="none" xmlns="http://www.w3.org/2000/svg">
    <path fill-rule="evenodd" clip-rule="evenodd"
        d="M22.265 11.4236L25.6365 11.9703C26.2277 12.0548 26.6668 12.5611 26.6668 13.1583V24.1624C26.6668 24.8251 26.1296 25.3624 25.4668 25.3624H6.5335C5.87075 25.3624 5.3335 24.8251 5.3335 24.1624V13.1583C5.3335 12.5611 5.77261 12.0548 6.36379 11.9703L9.73529 11.4236L11.2471 8.78338C11.4293 8.32779 11.8706 8.02905 12.3612 8.02905H19.6391C20.1298 8.02905 20.571 8.32779 20.7532 8.78338L22.265 11.4236ZM6.66683 24.0291H25.3335V13.2739L22.0002 12.7326C21.5752 12.6719 21.2151 12.3889 21.0557 11.9904L19.5488 9.36239H12.4515L10.9446 11.9904C10.7852 12.3889 10.4251 12.6719 10.0002 12.7326L6.66683 13.2739V24.0291ZM19.8555 20.075C20.1836 20.2422 20.585 20.1117 20.7522 19.7837C22.0894 17.1592 21.0459 13.9476 18.4214 12.6104C15.797 11.2731 12.5854 12.3166 11.2481 14.9411C9.91089 17.5656 10.9544 20.7772 13.5789 22.1144C15.1404 22.9101 16.9622 22.8819 18.4843 22.0823C18.8103 21.9111 18.9357 21.508 18.7644 21.1821C18.5932 20.8561 18.1902 20.7307 17.8642 20.9019C16.7212 21.5024 15.356 21.5235 14.1842 20.9264C12.2158 19.9235 11.4332 17.5148 12.4361 15.5464C13.4391 13.5781 15.8478 12.7954 17.8161 13.7984C19.7845 14.8013 20.5671 17.21 19.5642 19.1783C19.397 19.5064 19.5275 19.9079 19.8555 20.075Z"
        fill="#8A8A8A" />
</svg>
