<svg width="468" height="147" viewBox="0 0 468 147" fill="none" xmlns="http://www.w3.org/2000/svg">
<g clip-path="url(#clip0_28_28)">
<path d="M94.5 87C94 85.9167 93.5833 85.0417 93.25 84.375C93 83.7083 92.875 82.9167 92.875 82C92.875 81.25 92.9583 80.5833 93.125 80C93.375 79.3333 93.5 78.625 93.5 77.875C93.5 76.0417 93.4167 74.3333 93.25 72.75C93.1667 71.1667 93.0417 69.4167 92.875 67.5C92.7917 67.25 92.5 67.0417 92 66.875C91.5 66.7083 90.9583 66.5 90.375 66.25C89.7917 65.9167 89.25 65.4583 88.75 64.875C88.3333 64.2917 88.125 63.4583 88.125 62.375C88.125 61.375 88.3333 60.5417 88.75 59.875C89.25 59.125 89.75 58.4583 90.25 57.875C90.75 57.2083 91.2083 56.5417 91.625 55.875C92.125 55.125 92.375 54.25 92.375 53.25C92.375 52.8333 92.3333 52.0833 92.25 51C92.1667 49.8333 92.0833 48.625 92 47.375C92 46.125 91.9583 44.9583 91.875 43.875C91.875 42.7083 91.875 41.9167 91.875 41.5V41.25V41C92.2083 40.25 92.4583 39.625 92.625 39.125C92.875 38.625 93.125 38.25 93.375 38C93.625 37.75 93.9583 37.5833 94.375 37.5C94.7917 37.3333 95.3333 37.25 96 37.25C97.75 37.25 99.0417 37.5833 99.875 38.25C100.708 38.9167 101.292 39.7083 101.625 40.625C101.958 41.4583 102.167 42.25 102.25 43C102.333 43.75 102.542 44.1667 102.875 44.25L111.875 36.375H112.375C115.292 34.4583 118.375 33 121.625 32C124.875 30.9167 128.292 30.375 131.875 30.375C132.958 30.375 134.25 30.5 135.75 30.75C137.333 31 138.792 31.4583 140.125 32.125C141.542 32.7083 142.708 33.5 143.625 34.5C144.625 35.5 145.125 36.75 145.125 38.25C145.125 39.9167 144.917 41.625 144.5 43.375C144.083 45.125 143.5 46.875 142.75 48.625C142.083 50.2917 141.25 51.9167 140.25 53.5C139.333 55 138.333 56.2917 137.25 57.375C136.833 58.2917 134.167 60.625 129.25 64.375C124.333 68.125 117 73.7083 107.25 81.125L167.25 84.875C168.083 84.9583 169.208 85.0417 170.625 85.125C172.125 85.125 173.542 85.25 174.875 85.5C176.292 85.75 177.5 86.25 178.5 87C179.5 87.6667 180 88.7083 180 90.125C180 90.875 179.875 91.5 179.625 92C179.458 92.4167 179.208 92.7917 178.875 93.125C178.625 93.375 178.292 93.625 177.875 93.875C177.542 94.125 177.208 94.4583 176.875 94.875H174.75H172.625C170.958 94.7083 169.208 94.5 167.375 94.25C165.625 94 163.542 93.7083 161.125 93.375C158.792 93.0417 156.042 92.7083 152.875 92.375C149.708 92.0417 145.917 91.75 141.5 91.5C137.083 91.25 131.917 91.0417 126 90.875C120.167 90.7083 113.375 90.625 105.625 90.625C105.542 90.625 105.417 90.75 105.25 91C105.167 91.25 105.125 91.4583 105.125 91.625C105.125 94.7917 105.375 97.9167 105.875 101C106.458 104 106.75 107 106.75 110C106.75 110.583 106.667 111.25 106.5 112C106.417 112.667 106.208 113.333 105.875 114C105.542 114.583 105.125 115.083 104.625 115.5C104.125 115.917 103.5 116.125 102.75 116.125C102.25 116.125 101.667 116.042 101 115.875C100.333 115.625 99.6667 115.292 99 114.875C98.4167 114.458 97.875 114 97.375 113.5C96.875 113 96.5833 112.417 96.5 111.75L94.5 87ZM102.875 59.375C102.875 61.4583 102.917 63.4167 103 65.25C103.083 67.0833 103.208 69.0833 103.375 71.25H103.75C103.833 71.25 104.042 71.1667 104.375 71C104.708 70.8333 105.542 70.3333 106.875 69.5C108.208 68.5833 110.25 67.2083 113 65.375C115.75 63.4583 119.625 60.7917 124.625 57.375C125.625 56.7917 126.708 55.7917 127.875 54.375C129.042 52.9583 130.125 51.4167 131.125 49.75C132.125 48.0833 132.958 46.4583 133.625 44.875C134.292 43.2083 134.625 41.8333 134.625 40.75C134.625 39.9167 134.208 39.5 133.375 39.5C132.625 39.5 131.958 39.5 131.375 39.5C130.125 39.5 128.708 39.7083 127.125 40.125C125.542 40.5417 123.625 41.375 121.375 42.625C119.208 43.875 116.583 45.6667 113.5 48C110.5 50.3333 106.958 53.4583 102.875 57.375V59.375ZM183.65 116.75C183.733 116.333 183.817 115.542 183.9 114.375C184.067 113.208 184.233 112 184.4 110.75C184.65 109.417 184.858 108.208 185.025 107.125C185.192 105.958 185.317 105.125 185.4 104.625C185.817 100.875 186.317 97.1667 186.9 93.5C187.567 89.75 187.9 86 187.9 82.25V80.375L185.9 79.375C185.567 79.2083 184.733 78.6667 183.4 77.75C182.067 76.8333 180.567 75.7917 178.9 74.625C177.317 73.4583 175.733 72.2917 174.15 71.125C172.567 69.875 171.358 68.875 170.525 68.125C170.025 67.7917 169.192 67.1667 168.025 66.25C166.942 65.25 165.775 64.2083 164.525 63.125C163.358 61.9583 162.233 60.875 161.15 59.875C160.067 58.7917 159.317 58.0417 158.9 57.625C158.233 56.9583 157.608 56.2083 157.025 55.375C156.442 54.4583 156.15 53.5417 156.15 52.625C156.15 51.2083 156.692 50.2083 157.775 49.625C158.858 48.9583 160.025 48.625 161.275 48.625C162.108 48.625 162.983 48.75 163.9 49C164.817 49.1667 165.608 49.5833 166.275 50.25C169.442 53.75 172.983 57.25 176.9 60.75C180.817 64.25 184.817 67.25 188.9 69.75L189.4 68.125L194.65 34.375C194.817 33.4583 195.317 32.875 196.15 32.625C197.067 32.375 197.9 32.25 198.65 32.25C200.817 32.25 202.442 32.7917 203.525 33.875C204.692 34.875 205.275 36.5833 205.275 39V39.25C205.275 39.3333 205.192 39.5417 205.025 39.875C204.942 40.2083 204.817 40.5833 204.65 41C204.567 41.4167 204.483 41.8333 204.4 42.25C204.317 42.5833 204.275 42.7917 204.275 42.875C204.025 43.875 203.692 45.8333 203.275 48.75C202.858 51.5833 202.4 55 201.9 59C201.4 62.9167 200.858 67.25 200.275 72C199.692 76.75 199.108 81.5417 198.525 86.375C197.942 91.125 197.358 95.75 196.775 100.25C196.192 104.667 195.65 108.583 195.15 112C195.233 112.833 195.275 113.792 195.275 114.875C195.358 115.958 195.233 117 194.9 118C194.567 119 194.025 119.833 193.275 120.5C192.608 121.167 191.65 121.5 190.4 121.5C188.817 121.5 187.4 121.083 186.15 120.25C184.983 119.417 184.15 118.25 183.65 116.75ZM237.575 83.875H237.2C237.2 87.2917 237.242 90.6667 237.325 94C237.492 97.25 237.575 100.625 237.575 104.125C237.575 105.125 237.533 106.125 237.45 107.125C237.45 108.042 237.325 108.917 237.075 109.75C236.825 110.5 236.367 111.125 235.7 111.625C235.117 112.042 234.2 112.25 232.95 112.25C230.617 112.25 228.992 111.042 228.075 108.625C227.658 104.708 227.408 100.875 227.325 97.125C227.242 93.2917 226.992 89.375 226.575 85.375C226.408 84.2083 225.908 83.0833 225.075 82C224.325 80.9167 223.95 79.875 223.95 78.875C223.95 78.125 224.2 77.5 224.7 77C225.283 76.5 225.575 75.7917 225.575 74.875C225.575 68.375 225.367 61.9583 224.95 55.625C224.617 49.2083 224.45 42.7917 224.45 36.375V34.25C225.033 33.4167 225.617 32.9167 226.2 32.75C226.783 32.5833 227.575 32.5 228.575 32.5C230.992 32.5 232.533 33.25 233.2 34.75C233.867 36.1667 234.242 37.9167 234.325 40L235.45 73.25C235.533 73.5 235.658 73.9167 235.825 74.5C236.075 75 236.408 75.25 236.825 75.25C237.408 75.25 238.492 75.125 240.075 74.875C241.658 74.5417 243.325 74.2083 245.075 73.875C246.825 73.4583 248.408 73.0417 249.825 72.625C251.242 72.125 252.075 71.6667 252.325 71.25C252.325 70.6667 252.325 69.625 252.325 68.125C252.408 66.625 252.45 65.5833 252.45 65C252.45 61.5 252.408 58.0417 252.325 54.625C252.242 51.2083 252.075 47.75 251.825 44.25C251.825 43.6667 251.7 42.2917 251.45 40.125C251.2 37.875 250.95 35.4583 250.7 32.875C250.45 30.2917 250.2 27.9167 249.95 25.75C249.783 23.5 249.7 22.0833 249.7 21.5C249.617 21.4167 249.575 21.1667 249.575 20.75C249.575 20.25 249.575 19.9167 249.575 19.75C249.575 18.6667 249.95 17.875 250.7 17.375C251.533 16.875 252.408 16.625 253.325 16.625C255.325 16.625 256.783 17.25 257.7 18.5C258.7 19.75 259.408 21.2917 259.825 23.125C259.908 24.0417 260.033 25.5833 260.2 27.75C260.367 29.9167 260.575 32.25 260.825 34.75C261.075 37.25 261.283 39.625 261.45 41.875C261.7 44.0417 261.867 45.5417 261.95 46.375V48.375C261.95 48.7917 261.992 49.625 262.075 50.875C262.242 52.0417 262.367 52.8333 262.45 53.25V104.5C262.867 105.917 263.117 107.083 263.2 108C263.367 108.917 263.45 110 263.45 111.25C263.45 112.25 263.158 113.333 262.575 114.5C262.075 115.583 261.158 116.125 259.825 116.125C258.658 116.125 257.575 115.833 256.575 115.25C255.658 114.667 254.825 113.917 254.075 113C253.408 112.083 252.867 111.083 252.45 110C252.033 108.833 251.825 107.667 251.825 106.5V80.75L237.575 83.875ZM283 108.125C283 103.125 283.333 98.1667 284 93.25C284.667 88.3333 285.25 83.4167 285.75 78.5C285.75 78.25 285.792 77.7083 285.875 76.875C285.958 75.9583 286.042 75 286.125 74C286.292 73 286.417 72.0833 286.5 71.25C286.667 70.3333 286.75 69.75 286.75 69.5V69L292 30C291.833 28.3333 292.083 26.875 292.75 25.625C293.5 24.2917 294.833 23.625 296.75 23.625C298.833 23.375 300.542 23.6667 301.875 24.5C303.292 25.25 304.458 26.25 305.375 27.5C306.292 28.75 307.042 30.125 307.625 31.625C308.208 33.125 308.833 34.5 309.5 35.75C309.917 36.9167 310.417 38.2917 311 39.875C311.667 41.4583 312.417 43.4583 313.25 45.875C314.167 48.2917 315.208 51.25 316.375 54.75C317.625 58.25 319.042 62.5 320.625 67.5L321.125 68C321.708 67.6667 322.792 67.125 324.375 66.375C326.042 65.625 327.75 64.8333 329.5 64C331.333 63.1667 333.042 62.375 334.625 61.625C336.208 60.875 337.333 60.375 338 60.125C338.083 59.9583 338.292 59.8333 338.625 59.75C339.042 59.5833 339.333 59.4583 339.5 59.375H339.75C340.583 59.375 341.208 59.7083 341.625 60.375C342.042 60.9583 342.25 61.5417 342.25 62.125C342.25 63.0417 342.042 63.8333 341.625 64.5C341.208 65.1667 340.708 65.7917 340.125 66.375C339.625 66.875 339.042 67.375 338.375 67.875C337.792 68.375 337.333 68.9167 337 69.5L324.625 75.75C324.292 76.1667 324.125 76.5 324.125 76.75C324.125 77.4167 324.458 78.4583 325.125 79.875C325.875 81.2917 326.458 82.4167 326.875 83.25C327.125 83.75 327.542 84.6667 328.125 86C328.708 87.3333 329.333 88.7083 330 90.125C330.667 91.5417 331.292 92.9167 331.875 94.25C332.542 95.5 333 96.375 333.25 96.875V97.25C333.25 100.25 331.75 101.75 328.75 101.75C327.833 101.75 326.875 101.667 325.875 101.5C324.875 101.25 324.125 100.625 323.625 99.625L315.25 81.75H314.125C310.958 84.1667 307.583 86.5417 304 88.875C300.417 91.2083 296.75 93.2083 293 94.875C292.417 97.875 292.042 100.917 291.875 104C291.792 107.083 291.833 110.167 292 113.25C291.333 114.167 290.667 114.875 290 115.375C289.333 115.792 288.417 116 287.25 116C286.083 116 285.208 115.75 284.625 115.25C284.042 114.667 283.625 114 283.375 113.25C283.125 112.417 283 111.542 283 110.625C283 109.708 283 108.875 283 108.125ZM294.125 83.875C296.625 82.875 299.042 81.5417 301.375 79.875C303.792 78.2083 306.083 76.6667 308.25 75.25C308.5 75.0833 308.792 74.9167 309.125 74.75C309.542 74.5833 309.917 74.375 310.25 74.125C310.583 73.875 311 73.5833 311.5 73.25V72.25L300 39.5L299.5 39C299.25 39.5 298.917 40.9167 298.5 43.25C298.167 45.5833 297.75 48.625 297.25 52.375C296.833 56.0417 296.333 60.2917 295.75 65.125C295.25 69.9583 294.708 75.125 294.125 80.625V83.875ZM340.2 87C339.7 85.9167 339.283 85.0417 338.95 84.375C338.7 83.7083 338.575 82.9167 338.575 82C338.575 81.25 338.658 80.5833 338.825 80C339.075 79.3333 339.2 78.625 339.2 77.875C339.2 76.0417 339.117 74.3333 338.95 72.75C338.867 71.1667 338.742 69.4167 338.575 67.5C338.492 67.25 338.2 67.0417 337.7 66.875C337.2 66.7083 336.658 66.5 336.075 66.25C335.492 65.9167 334.95 65.4583 334.45 64.875C334.033 64.2917 333.825 63.4583 333.825 62.375C333.825 61.375 334.033 60.5417 334.45 59.875C334.95 59.125 335.45 58.4583 335.95 57.875C336.45 57.2083 336.908 56.5417 337.325 55.875C337.825 55.125 338.075 54.25 338.075 53.25C338.075 52.8333 338.033 52.0833 337.95 51C337.867 49.8333 337.783 48.625 337.7 47.375C337.7 46.125 337.658 44.9583 337.575 43.875C337.575 42.7083 337.575 41.9167 337.575 41.5V41.25V41C337.908 40.25 338.158 39.625 338.325 39.125C338.575 38.625 338.825 38.25 339.075 38C339.325 37.75 339.658 37.5833 340.075 37.5C340.492 37.3333 341.033 37.25 341.7 37.25C343.45 37.25 344.742 37.5833 345.575 38.25C346.408 38.9167 346.992 39.7083 347.325 40.625C347.658 41.4583 347.867 42.25 347.95 43C348.033 43.75 348.242 44.1667 348.575 44.25L357.575 36.375H358.075C360.992 34.4583 364.075 33 367.325 32C370.575 30.9167 373.992 30.375 377.575 30.375C378.658 30.375 379.95 30.5 381.45 30.75C383.033 31 384.492 31.4583 385.825 32.125C387.242 32.7083 388.408 33.5 389.325 34.5C390.325 35.5 390.825 36.75 390.825 38.25C390.825 39.9167 390.617 41.625 390.2 43.375C389.783 45.125 389.2 46.875 388.45 48.625C387.783 50.2917 386.95 51.9167 385.95 53.5C385.033 55 384.033 56.2917 382.95 57.375C382.533 58.2917 379.867 60.625 374.95 64.375C370.033 68.125 362.7 73.7083 352.95 81.125L412.95 84.875C413.783 84.9583 414.908 85.0417 416.325 85.125C417.825 85.125 419.242 85.25 420.575 85.5C421.992 85.75 423.2 86.25 424.2 87C425.2 87.6667 425.7 88.7083 425.7 90.125C425.7 90.875 425.575 91.5 425.325 92C425.158 92.4167 424.908 92.7917 424.575 93.125C424.325 93.375 423.992 93.625 423.575 93.875C423.242 94.125 422.908 94.4583 422.575 94.875H420.45H418.325C416.658 94.7083 414.908 94.5 413.075 94.25C411.325 94 409.242 93.7083 406.825 93.375C404.492 93.0417 401.742 92.7083 398.575 92.375C395.408 92.0417 391.617 91.75 387.2 91.5C382.783 91.25 377.617 91.0417 371.7 90.875C365.867 90.7083 359.075 90.625 351.325 90.625C351.242 90.625 351.117 90.75 350.95 91C350.867 91.25 350.825 91.4583 350.825 91.625C350.825 94.7917 351.075 97.9167 351.575 101C352.158 104 352.45 107 352.45 110C352.45 110.583 352.367 111.25 352.2 112C352.117 112.667 351.908 113.333 351.575 114C351.242 114.583 350.825 115.083 350.325 115.5C349.825 115.917 349.2 116.125 348.45 116.125C347.95 116.125 347.367 116.042 346.7 115.875C346.033 115.625 345.367 115.292 344.7 114.875C344.117 114.458 343.575 114 343.075 113.5C342.575 113 342.283 112.417 342.2 111.75L340.2 87ZM348.575 59.375C348.575 61.4583 348.617 63.4167 348.7 65.25C348.783 67.0833 348.908 69.0833 349.075 71.25H349.45C349.533 71.25 349.742 71.1667 350.075 71C350.408 70.8333 351.242 70.3333 352.575 69.5C353.908 68.5833 355.95 67.2083 358.7 65.375C361.45 63.4583 365.325 60.7917 370.325 57.375C371.325 56.7917 372.408 55.7917 373.575 54.375C374.742 52.9583 375.825 51.4167 376.825 49.75C377.825 48.0833 378.658 46.4583 379.325 44.875C379.992 43.2083 380.325 41.8333 380.325 40.75C380.325 39.9167 379.908 39.5 379.075 39.5C378.325 39.5 377.658 39.5 377.075 39.5C375.825 39.5 374.408 39.7083 372.825 40.125C371.242 40.5417 369.325 41.375 367.075 42.625C364.908 43.875 362.283 45.6667 359.2 48C356.2 50.3333 352.658 53.4583 348.575 57.375V59.375ZM418.725 112C418.725 111.25 418.975 110.583 419.475 110C420.058 109.417 420.35 108.792 420.35 108.125C420.35 107.958 420.183 107.75 419.85 107.5C419.517 107.25 419.308 107.083 419.225 107C418.392 105.75 417.933 104.333 417.85 102.75C417.767 101.167 417.725 99.6667 417.725 98.25C417.725 90.5833 417.767 83 417.85 75.5C417.933 68 417.975 60.4167 417.975 52.75C417.142 52.75 416.35 52.9583 415.6 53.375C414.85 53.7083 414.058 54.125 413.225 54.625C412.392 55.0417 411.517 55.4583 410.6 55.875C409.683 56.2083 408.683 56.375 407.6 56.375H405.6C405.433 56.125 405.017 55.9167 404.35 55.75C403.683 55.5 403.35 55.2083 403.35 54.875V51.125C403.767 50.875 404.1 50.5417 404.35 50.125C404.683 49.625 404.933 49.2083 405.1 48.875L417.725 42.625L418.225 42C418.058 39.6667 418.183 37.7917 418.6 36.375C419.017 34.9583 420.475 34.25 422.975 34.25C423.642 34.25 424.35 34.375 425.1 34.625C425.933 34.875 426.683 35.2083 427.35 35.625C428.1 36.0417 428.642 36.5833 428.975 37.25C429.392 37.9167 429.517 38.6667 429.35 39.5C433.517 39.6667 437.642 40 441.725 40.5C445.808 40.9167 449.475 41.9167 452.725 43.5C455.975 45 458.6 47.25 460.6 50.25C462.683 53.25 463.725 57.375 463.725 62.625C463.725 67.375 462.808 72.125 460.975 76.875C459.142 81.625 456.517 85.7083 453.1 89.125L429.35 112.75C428.183 113.917 427.183 114.75 426.35 115.25C425.6 115.75 424.475 116 422.975 116C421.725 116 420.683 115.667 419.85 115C419.1 114.25 418.725 113.25 418.725 112ZM429.35 100.75H428.85L429.85 100.125C429.933 100.042 430.225 99.7917 430.725 99.375C431.308 98.875 431.933 98.3333 432.6 97.75C433.267 97.0833 433.933 96.4583 434.6 95.875C435.267 95.2917 435.808 94.7917 436.225 94.375C438.142 92.375 440.142 90.25 442.225 88C444.392 85.75 446.35 83.375 448.1 80.875C449.85 78.2917 451.267 75.625 452.35 72.875C453.517 70.0417 454.1 67.0833 454.1 64C454.1 61.0833 453.558 58.625 452.475 56.625C451.392 54.5417 449.933 52.875 448.1 51.625C446.35 50.2917 444.267 49.3333 441.85 48.75C439.433 48.1667 436.85 47.875 434.1 47.875C433.85 47.875 433.1 47.9583 431.85 48.125C430.683 48.2083 429.85 48.4583 429.35 48.875V100.75Z" fill="#641664"/>
<path d="M89.5 90C89 88.9167 88.5833 88.0417 88.25 87.375C88 86.7083 87.875 85.9167 87.875 85C87.875 84.25 87.9583 83.5833 88.125 83C88.375 82.3333 88.5 81.625 88.5 80.875C88.5 79.0417 88.4167 77.3333 88.25 75.75C88.1667 74.1667 88.0417 72.4167 87.875 70.5C87.7917 70.25 87.5 70.0417 87 69.875C86.5 69.7083 85.9583 69.5 85.375 69.25C84.7917 68.9167 84.25 68.4583 83.75 67.875C83.3333 67.2917 83.125 66.4583 83.125 65.375C83.125 64.375 83.3333 63.5417 83.75 62.875C84.25 62.125 84.75 61.4583 85.25 60.875C85.75 60.2083 86.2083 59.5417 86.625 58.875C87.125 58.125 87.375 57.25 87.375 56.25C87.375 55.8333 87.3333 55.0833 87.25 54C87.1667 52.8333 87.0833 51.625 87 50.375C87 49.125 86.9583 47.9583 86.875 46.875C86.875 45.7083 86.875 44.9167 86.875 44.5V44.25V44C87.2083 43.25 87.4583 42.625 87.625 42.125C87.875 41.625 88.125 41.25 88.375 41C88.625 40.75 88.9583 40.5833 89.375 40.5C89.7917 40.3333 90.3333 40.25 91 40.25C92.75 40.25 94.0417 40.5833 94.875 41.25C95.7083 41.9167 96.2917 42.7083 96.625 43.625C96.9583 44.4583 97.1667 45.25 97.25 46C97.3333 46.75 97.5417 47.1667 97.875 47.25L106.875 39.375H107.375C110.292 37.4583 113.375 36 116.625 35C119.875 33.9167 123.292 33.375 126.875 33.375C127.958 33.375 129.25 33.5 130.75 33.75C132.333 34 133.792 34.4583 135.125 35.125C136.542 35.7083 137.708 36.5 138.625 37.5C139.625 38.5 140.125 39.75 140.125 41.25C140.125 42.9167 139.917 44.625 139.5 46.375C139.083 48.125 138.5 49.875 137.75 51.625C137.083 53.2917 136.25 54.9167 135.25 56.5C134.333 58 133.333 59.2917 132.25 60.375C131.833 61.2917 129.167 63.625 124.25 67.375C119.333 71.125 112 76.7083 102.25 84.125L162.25 87.875C163.083 87.9583 164.208 88.0417 165.625 88.125C167.125 88.125 168.542 88.25 169.875 88.5C171.292 88.75 172.5 89.25 173.5 90C174.5 90.6667 175 91.7083 175 93.125C175 93.875 174.875 94.5 174.625 95C174.458 95.4167 174.208 95.7917 173.875 96.125C173.625 96.375 173.292 96.625 172.875 96.875C172.542 97.125 172.208 97.4583 171.875 97.875H169.75H167.625C165.958 97.7083 164.208 97.5 162.375 97.25C160.625 97 158.542 96.7083 156.125 96.375C153.792 96.0417 151.042 95.7083 147.875 95.375C144.708 95.0417 140.917 94.75 136.5 94.5C132.083 94.25 126.917 94.0417 121 93.875C115.167 93.7083 108.375 93.625 100.625 93.625C100.542 93.625 100.417 93.75 100.25 94C100.167 94.25 100.125 94.4583 100.125 94.625C100.125 97.7917 100.375 100.917 100.875 104C101.458 107 101.75 110 101.75 113C101.75 113.583 101.667 114.25 101.5 115C101.417 115.667 101.208 116.333 100.875 117C100.542 117.583 100.125 118.083 99.625 118.5C99.125 118.917 98.5 119.125 97.75 119.125C97.25 119.125 96.6667 119.042 96 118.875C95.3333 118.625 94.6667 118.292 94 117.875C93.4167 117.458 92.875 117 92.375 116.5C91.875 116 91.5833 115.417 91.5 114.75L89.5 90ZM97.875 62.375C97.875 64.4583 97.9167 66.4167 98 68.25C98.0833 70.0833 98.2083 72.0833 98.375 74.25H98.75C98.8333 74.25 99.0417 74.1667 99.375 74C99.7083 73.8333 100.542 73.3333 101.875 72.5C103.208 71.5833 105.25 70.2083 108 68.375C110.75 66.4583 114.625 63.7917 119.625 60.375C120.625 59.7917 121.708 58.7917 122.875 57.375C124.042 55.9583 125.125 54.4167 126.125 52.75C127.125 51.0833 127.958 49.4583 128.625 47.875C129.292 46.2083 129.625 44.8333 129.625 43.75C129.625 42.9167 129.208 42.5 128.375 42.5C127.625 42.5 126.958 42.5 126.375 42.5C125.125 42.5 123.708 42.7083 122.125 43.125C120.542 43.5417 118.625 44.375 116.375 45.625C114.208 46.875 111.583 48.6667 108.5 51C105.5 53.3333 101.958 56.4583 97.875 60.375V62.375ZM178.65 119.75C178.733 119.333 178.817 118.542 178.9 117.375C179.067 116.208 179.233 115 179.4 113.75C179.65 112.417 179.858 111.208 180.025 110.125C180.192 108.958 180.317 108.125 180.4 107.625C180.817 103.875 181.317 100.167 181.9 96.5C182.567 92.75 182.9 89 182.9 85.25V83.375L180.9 82.375C180.567 82.2083 179.733 81.6667 178.4 80.75C177.067 79.8333 175.567 78.7917 173.9 77.625C172.317 76.4583 170.733 75.2917 169.15 74.125C167.567 72.875 166.358 71.875 165.525 71.125C165.025 70.7917 164.192 70.1667 163.025 69.25C161.942 68.25 160.775 67.2083 159.525 66.125C158.358 64.9583 157.233 63.875 156.15 62.875C155.067 61.7917 154.317 61.0417 153.9 60.625C153.233 59.9583 152.608 59.2083 152.025 58.375C151.442 57.4583 151.15 56.5417 151.15 55.625C151.15 54.2083 151.692 53.2083 152.775 52.625C153.858 51.9583 155.025 51.625 156.275 51.625C157.108 51.625 157.983 51.75 158.9 52C159.817 52.1667 160.608 52.5833 161.275 53.25C164.442 56.75 167.983 60.25 171.9 63.75C175.817 67.25 179.817 70.25 183.9 72.75L184.4 71.125L189.65 37.375C189.817 36.4583 190.317 35.875 191.15 35.625C192.067 35.375 192.9 35.25 193.65 35.25C195.817 35.25 197.442 35.7917 198.525 36.875C199.692 37.875 200.275 39.5833 200.275 42V42.25C200.275 42.3333 200.192 42.5417 200.025 42.875C199.942 43.2083 199.817 43.5833 199.65 44C199.567 44.4167 199.483 44.8333 199.4 45.25C199.317 45.5833 199.275 45.7917 199.275 45.875C199.025 46.875 198.692 48.8333 198.275 51.75C197.858 54.5833 197.4 58 196.9 62C196.4 65.9167 195.858 70.25 195.275 75C194.692 79.75 194.108 84.5417 193.525 89.375C192.942 94.125 192.358 98.75 191.775 103.25C191.192 107.667 190.65 111.583 190.15 115C190.233 115.833 190.275 116.792 190.275 117.875C190.358 118.958 190.233 120 189.9 121C189.567 122 189.025 122.833 188.275 123.5C187.608 124.167 186.65 124.5 185.4 124.5C183.817 124.5 182.4 124.083 181.15 123.25C179.983 122.417 179.15 121.25 178.65 119.75Z" fill="#871287"/>
<path d="M48.875 51.6875C48.75 50.6875 48.5625 49.4375 48.3125 47.9375C48.1875 46.3125 48 44.8125 47.75 43.4375C47.625 41.9375 47.5 40.6875 47.375 39.6875C47.25 38.6875 47.1875 38.1875 47.1875 38.1875H45.6875L24.3125 44.5625C23.6875 45.5625 22.625 46.0625 21.125 46.0625C19.75 46.0625 18.6875 46.0625 17.9375 46.0625C16.1875 46.0625 14.375 45.3125 12.5 43.8125C10.75 42.1875 9.875 40.4375 9.875 38.5625C9.875 37.1875 10.3125 35.875 11.1875 34.625C12.1875 33.25 13.375 32.3125 14.75 31.8125L44.9375 22.25C45.3125 20.875 46 19.5 47 18.125C48.125 16.625 49.5625 15.875 51.3125 15.875C53.0625 15.875 54.5 16.3125 55.625 17.1875C56.875 18.0625 58.25 18.75 59.75 19.25C60.875 19.125 62.75 18.75 65.375 18.125C68 17.5 70.75 16.875 73.625 16.25C76.625 15.5 79.4375 14.8125 82.0625 14.1875C84.6875 13.5625 86.5 13.125 87.5 12.875C89 12.625 90.125 12.3125 90.875 11.9375C91.625 11.5625 92.8125 11.375 94.4375 11.375C96.5625 11.375 98.75 12 101 13.25C103.25 14.5 104.375 16.375 104.375 18.875C104.375 20.5 103.812 21.9375 102.688 23.1875C101.562 24.3125 100.188 25.0625 98.5625 25.4375L62.9375 34.4375V36.125C62.9375 40 63.25 43.8125 63.875 47.5625C64.625 51.3125 64.875 55.0625 64.625 58.8125L71 116.75V120.875C71 122.375 70.9375 123.938 70.8125 125.562C70.8125 127.062 70.5625 128.438 70.0625 129.688C69.6875 130.938 69 132 68 132.875C67 133.625 65.5 134 63.5 134C62 134 60.375 133.375 58.625 132.125C57 130.875 56.125 129.375 56 127.625L48.875 53.1875V51.6875Z" fill="#641664"/>
<path d="M40.875 57.6875C40.75 56.6875 40.5625 55.4375 40.3125 53.9375C40.1875 52.3125 40 50.8125 39.75 49.4375C39.625 47.9375 39.5 46.6875 39.375 45.6875C39.25 44.6875 39.1875 44.1875 39.1875 44.1875H37.6875L16.3125 50.5625C15.6875 51.5625 14.625 52.0625 13.125 52.0625C11.75 52.0625 10.6875 52.0625 9.9375 52.0625C8.1875 52.0625 6.375 51.3125 4.5 49.8125C2.75 48.1875 1.875 46.4375 1.875 44.5625C1.875 43.1875 2.3125 41.875 3.1875 40.625C4.1875 39.25 5.375 38.3125 6.75 37.8125L36.9375 28.25C37.3125 26.875 38 25.5 39 24.125C40.125 22.625 41.5625 21.875 43.3125 21.875C45.0625 21.875 46.5 22.3125 47.625 23.1875C48.875 24.0625 50.25 24.75 51.75 25.25C52.875 25.125 54.75 24.75 57.375 24.125C60 23.5 62.75 22.875 65.625 22.25C68.625 21.5 71.4375 20.8125 74.0625 20.1875C76.6875 19.5625 78.5 19.125 79.5 18.875C81 18.625 82.125 18.3125 82.875 17.9375C83.625 17.5625 84.8125 17.375 86.4375 17.375C88.5625 17.375 90.75 18 93 19.25C95.25 20.5 96.375 22.375 96.375 24.875C96.375 26.5 95.8125 27.9375 94.6875 29.1875C93.5625 30.3125 92.1875 31.0625 90.5625 31.4375L54.9375 40.4375V42.125C54.9375 46 55.25 49.8125 55.875 53.5625C56.625 57.3125 56.875 61.0625 56.625 64.8125L63 122.75V126.875C63 128.375 62.9375 129.938 62.8125 131.562C62.8125 133.062 62.5625 134.438 62.0625 135.688C61.6875 136.938 61 138 60 138.875C59 139.625 57.5 140 55.5 140C54 140 52.375 139.375 50.625 138.125C49 136.875 48.125 135.375 48 133.625L40.875 59.1875V57.6875Z" fill="#871287"/>
</g>
<defs>
<clipPath id="clip0_28_28">
<rect width="468" height="147" fill="white"/>
</clipPath>
</defs>
</svg>
